<?xml version="1.0" standalone="no"?>
<!DOCTYPE svg PUBLIC "-//W3C//DTD SVG 20010904//EN"
 "http://www.w3.org/TR/2001/REC-SVG-20010904/DTD/svg10.dtd">
<svg version="1.0" xmlns="http://www.w3.org/2000/svg"
 width="512.000000pt" height="512.000000pt" viewBox="0 0 512.000000 512.000000"
 preserveAspectRatio="xMidYMid meet">
<metadata>
Created by potrace 1.11, written by Peter Selinger 2001-2013
</metadata>
<g transform="translate(0.000000,512.000000) scale(0.100000,-0.100000)"
fill="#000000" stroke="none">
<path d="M2311 5109 c-36 -14 -78 -65 -88 -107 -5 -20 -10 -146 -11 -279 0
-147 -5 -250 -11 -262 -14 -26 -57 -34 -112 -22 -102 22 -303 32 -424 19 -149
-15 -174 -19 -284 -48 -191 -50 -395 -148 -407 -195 -8 -33 2 -60 31 -75 19
-10 39 -11 97 -1 40 6 93 14 118 17 79 9 324 12 350 4 l25 -8 -25 -2 c-14 -1
-32 -3 -40 -5 -8 -1 -33 -6 -55 -9 -35 -5 -78 -13 -177 -30 -13 -2 -34 -7 -48
-10 -14 -3 -36 -8 -50 -10 -112 -20 -320 -74 -340 -89 -70 -56 -226 -210 -285
-282 -22 -27 -51 -60 -64 -74 -77 -84 -258 -393 -312 -534 -11 -29 -24 -61
-29 -72 -24 -55 -74 -235 -95 -345 -25 -133 -30 -202 -30 -390 0 -197 4 -244
39 -438 23 -127 95 -331 172 -492 53 -110 173 -309 230 -379 355 -444 783
-730 1322 -885 64 -19 131 -36 147 -39 17 -3 41 -8 55 -11 52 -12 187 -33 275
-42 39 -5 158 -8 265 -8 210 -1 306 5 445 29 17 3 46 8 65 11 130 21 417 104
517 150 17 7 34 14 37 14 13 0 204 96 286 143 561 323 965 839 1115 1426 47
186 64 336 59 556 -2 110 -5 211 -8 225 -2 14 -7 43 -11 65 -3 22 -13 72 -21
110 -9 39 -18 81 -20 94 -14 73 -94 284 -154 406 -155 316 -379 591 -661 811
-104 80 -150 103 -214 105 l-30 1 31 9 c36 10 59 48 50 82 -11 46 -240 169
-430 232 -259 86 -494 92 -699 19 -127 -45 -125 -45 -153 -20 l-26 22 -2 250
c-1 245 -2 250 -26 293 -40 70 -71 81 -230 80 -74 0 -146 -5 -159 -10z"/>
</g>
</svg>
